<svg xmlns="http://www.w3.org/2000/svg" data-name="Layer 3" viewBox="0 0 32 40" x="0px" y="0px"><title>UI</title><path d="M13,26v1H23.459A3.546,3.546,0,0,0,27,23.458V13H26A13.015,13.015,0,0,0,13,26Z"/><path d="M23.459,5H8.541A3.546,3.546,0,0,0,5,8.542V23.458A3.546,3.546,0,0,0,8.541,27H11V26A15.017,15.017,0,0,1,26,11h1V8.542A3.546,3.546,0,0,0,23.459,5ZM11,14a3,3,0,1,1,3-3A3,3,0,0,1,11,14Z"/><text x="0" y="47" fill="#000000" font-size="10px" font-weight="bold" font-family="'Helvetica Neue', Helvetica, Arial-Unicode, Arial, Sans-serif">Created by Ilham Fitrotul Hayat</text><text x="0" y="52" fill="#000000" font-size="5px" font-weight="bold" font-family="'Helvetica Neue', Helvetica, Arial-Unicode, Arial, Sans-serif">from the Noun Project</text></svg>